# xmcd
#
# Track frame offsets:
#	150
#	20164
#	42213
#	66330
#	84915
#	108868
#	126798
#	145215
#	168774
#	183773
#	202279
#	216831
#	234252
#
# Disc length: 3346 seconds
#
# Revision: 1
# Processed by: cddbd v1.4PL0 Copyright (c) Steve Scherf et al.
# Submitted via: audiograbber 1.81.03
#
DISCID=b10d100d
DTITLE=Shelley and Roberstson - Resolve
DYEAR=1900
DGENRE=Country
TTITLE0=Fast Car
TTITLE1=Kansas City
TTITLE2=I Wish
TTITLE3=Have I Told You Lately
TTITLE4=Peaceful Easy Feeling
TTITLE5=New York City
TTITLE6=Broken Road
TTITLE7=Diamantina Drover
TTITLE8=Nothin' Changes
TTITLE9=Ain't No Sunshine
TTITLE10=Crazy Love
TTITLE11=I'm The One In Need
TTITLE12=I Can See Clearly Now
EXTD=
EXTT0=
EXTT1=
EXTT2=
EXTT3=
EXTT4=
EXTT5=
EXTT6=
EXTT7=
EXTT8=
EXTT9=
EXTT10=
EXTT11=
EXTT12=
PLAYORDER=
